<svg
  xmlns="http://www.w3.org/2000/svg"
  viewBox="0 0 128 128"
  role="img"
  aria-label="MuraenaRF"
>
  <defs>
    <mask id="shape">
      <rect width="128" height="128" fill="black"/>

      <!-- Основной силуэт -->
      <rect x="16" y="40" width="96" height="48" rx="9" fill="white"/>

      <!-- Верхние разъёмы -->
      <rect x="22" y="27" width="12" height="20" rx="3" fill="white"/>
      <rect x="39" y="27" width="12" height="20" rx="3" fill="white"/>
      <rect x="77" y="27" width="12" height="20" rx="3" fill="white"/>
      <rect x="94" y="27" width="12" height="20" rx="3" fill="white"/>

      <!-- Нижние разъёмы -->
      <rect x="22" y="81" width="12" height="20" rx="3" fill="white"/>
      <rect x="39" y="81" width="12" height="20" rx="3" fill="white"/>
      <rect x="77" y="81" width="12" height="20" rx="3" fill="white"/>
      <rect x="94" y="81" width="12" height="20" rx="3" fill="white"/>

      <!-- Внутренняя область корпуса -->
      <rect x="25" y="52" width="78" height="24" rx="4" fill="black"/>

      <!-- Крупная входная стрелка -->
      <rect x="59" y="22" width="10" height="29" rx="3" fill="black"/>
      <path d="M50 43h28L64 59z" fill="black"/>
    </mask>
  </defs>

  <rect
    width="128"
    height="128"
    fill="#65e0d1"
    mask="url(#shape)"
  />
</svg>
